<svg width="192" height="36" viewBox="0 0 192 36" fill="none" xmlns="http://www.w3.org/2000/svg">
<path d="M28.0008 0.136387C32.68 -0.810606 36.8106 3.32 35.8636 7.9992L34.1075 16.6765C33.9307 17.55 33.9307 18.45 34.1075 19.3235L35.8636 28.0008C36.8106 32.68 32.68 36.8106 28.0008 35.8636L19.3235 34.1075C18.45 33.9307 17.55 33.9307 16.6765 34.1075L7.9992 35.8636C3.32001 36.8106 -0.810606 32.68 0.136386 28.0008L1.89254 19.3235C2.06931 18.45 2.06931 17.55 1.89254 16.6765L0.136387 7.9992C-0.810606 3.32001 3.32 -0.810606 7.9992 0.136386L16.6765 1.89254C17.55 2.06931 18.45 2.06931 19.3235 1.89254L28.0008 0.136387Z" fill="#FF8C00"/>
<path d="M26.3969 18.0569C26.3969 22.663 22.663 26.3969 18.057 26.3969C13.451 26.3969 9.71709 22.663 9.71709 18.0569C9.71709 13.4509 13.451 9.71702 18.057 9.71702C22.663 9.71702 26.3969 13.4509 26.3969 18.0569Z" fill="white"/>
<path d="M51.0387 21.213H57.3027V23.6867H48V5H51.0387V21.213Z" fill="#111111"/>
<path d="M58.5645 16.212C58.5645 14.7242 58.8666 13.4068 59.4708 12.2596C60.0927 11.1124 60.9279 10.2251 61.9764 9.59772C63.0426 8.95243 64.2154 8.62978 65.4949 8.62978C66.6499 8.62978 67.654 8.86281 68.5069 9.32885C69.3777 9.77697 70.0707 10.3416 70.5861 11.0228V8.87177H73.6514V23.6867H70.5861V21.4819C70.0707 22.181 69.3688 22.7635 68.4803 23.2296C67.5918 23.6956 66.5789 23.9286 65.4416 23.9286C64.1799 23.9286 63.0248 23.606 61.9764 22.9607C60.9279 22.2975 60.0927 21.3833 59.4708 20.2182C58.8666 19.0352 58.5645 17.6998 58.5645 16.212ZM70.5861 16.2658C70.5861 15.2441 70.3728 14.3568 69.9463 13.6039C69.5376 12.8511 68.9956 12.2775 68.3203 11.8831C67.6451 11.4888 66.9165 11.2916 66.1346 11.2916C65.3527 11.2916 64.6241 11.4888 63.9489 11.8831C63.2736 12.2596 62.7227 12.8242 62.2962 13.577C61.8875 14.312 61.6832 15.1903 61.6832 16.212C61.6832 17.2337 61.8875 18.13 62.2962 18.9007C62.7227 19.6715 63.2736 20.263 63.9489 20.6753C64.6419 21.0696 65.3705 21.2668 66.1346 21.2668C66.9165 21.2668 67.6451 21.0696 68.3203 20.6753C68.9956 20.2809 69.5376 19.7073 69.9463 18.9545C70.3728 18.1837 70.5861 17.2875 70.5861 16.2658Z" fill="#111111"/>
<path d="M84.7863 8.62978C85.9413 8.62978 86.972 8.87177 87.8783 9.35574C88.8024 9.83971 89.5221 10.5567 90.0374 11.5067C90.5527 12.4567 90.8104 13.6039 90.8104 14.9483V23.6867H87.7983V15.4054C87.7983 14.0789 87.4696 13.0662 86.8121 12.3671C86.1546 11.6501 85.2572 11.2916 84.1199 11.2916C82.9826 11.2916 82.0763 11.6501 81.4011 12.3671C80.7436 13.0662 80.4148 14.0789 80.4148 15.4054V23.6867H77.3761V8.87177H80.4148V10.5657C80.9124 9.95622 81.5432 9.48121 82.3073 9.14064C83.0892 8.80007 83.9155 8.62978 84.7863 8.62978Z" fill="#111111"/>
<path d="M100.337 8.62978C101.475 8.62978 102.479 8.86281 103.349 9.32885C104.238 9.77697 104.931 10.3416 105.429 11.0228V8.87177H108.494V23.9286C108.494 25.2909 108.21 26.5009 107.641 27.5584C107.072 28.6339 106.246 29.4764 105.162 30.0858C104.096 30.6953 102.816 31 101.324 31C99.3334 31 97.6807 30.525 96.3657 29.575C95.0507 28.6429 94.3044 27.3702 94.1267 25.757H97.1388C97.3698 26.5277 97.8584 27.1462 98.6048 27.6122C99.3689 28.0962 100.275 28.3382 101.324 28.3382C102.55 28.3382 103.536 27.9617 104.282 27.2089C105.047 26.456 105.429 25.3626 105.429 23.9286V21.455C104.913 22.1541 104.211 22.7456 103.323 23.2296C102.452 23.6956 101.457 23.9286 100.337 23.9286C99.0579 23.9286 97.8851 23.606 96.8189 22.9607C95.7704 22.2975 94.9352 21.3833 94.3133 20.2182C93.7091 19.0352 93.407 17.6998 93.407 16.212C93.407 14.7242 93.7091 13.4068 94.3133 12.2596C94.9352 11.1124 95.7704 10.2251 96.8189 9.59772C97.8851 8.95243 99.0579 8.62978 100.337 8.62978ZM105.429 16.2658C105.429 15.2441 105.215 14.3568 104.789 13.6039C104.38 12.8511 103.838 12.2775 103.163 11.8831C102.488 11.4888 101.759 11.2916 100.977 11.2916C100.195 11.2916 99.4667 11.4888 98.7914 11.8831C98.1161 12.2596 97.5652 12.8242 97.1388 13.577C96.73 14.312 96.5257 15.1903 96.5257 16.212C96.5257 17.2337 96.73 18.13 97.1388 18.9007C97.5652 19.6715 98.1161 20.263 98.7914 20.6753C99.4844 21.0696 100.213 21.2668 100.977 21.2668C101.759 21.2668 102.488 21.0696 103.163 20.6753C103.838 20.2809 104.38 19.7073 104.789 18.9545C105.215 18.1837 105.429 17.2875 105.429 16.2658Z" fill="#111111"/>
<path d="M125.52 8.87177V23.6867H122.481V21.939C122.001 22.5484 121.37 23.0324 120.588 23.3909C119.824 23.7315 119.007 23.9018 118.136 23.9018C116.981 23.9018 115.941 23.6598 115.017 23.1758C114.111 22.6918 113.391 21.9748 112.858 21.0248C112.343 20.0748 112.085 18.9276 112.085 17.5832V8.87177H115.097V17.1262C115.097 18.4526 115.426 19.4743 116.084 20.1913C116.741 20.8904 117.639 21.2399 118.776 21.2399C119.913 21.2399 120.811 20.8904 121.468 20.1913C122.143 19.4743 122.481 18.4526 122.481 17.1262V8.87177H125.52Z" fill="#111111"/>
<path d="M128.25 16.212C128.25 14.7242 128.552 13.4068 129.156 12.2596C129.778 11.1124 130.613 10.2251 131.661 9.59772C132.728 8.95243 133.9 8.62978 135.18 8.62978C136.335 8.62978 137.339 8.86281 138.192 9.32885C139.063 9.77697 139.756 10.3416 140.271 11.0228V8.87177H143.336V23.6867H140.271V21.4819C139.756 22.181 139.054 22.7635 138.165 23.2296C137.277 23.6956 136.264 23.9286 135.127 23.9286C133.865 23.9286 132.71 23.606 131.661 22.9607C130.613 22.2975 129.778 21.3833 129.156 20.2182C128.552 19.0352 128.25 17.6998 128.25 16.212ZM140.271 16.2658C140.271 15.2441 140.058 14.3568 139.631 13.6039C139.223 12.8511 138.681 12.2775 138.005 11.8831C137.33 11.4888 136.602 11.2916 135.82 11.2916C135.038 11.2916 134.309 11.4888 133.634 11.8831C132.959 12.2596 132.408 12.8242 131.981 13.577C131.573 14.312 131.368 15.1903 131.368 16.212C131.368 17.2337 131.573 18.13 131.981 18.9007C132.408 19.6715 132.959 20.263 133.634 20.6753C134.327 21.0696 135.056 21.2668 135.82 21.2668C136.602 21.2668 137.33 21.0696 138.005 20.6753C138.681 20.2809 139.223 19.7073 139.631 18.9545C140.058 18.1837 140.271 17.2875 140.271 16.2658Z" fill="#111111"/>
<path d="M152.979 8.62978C154.116 8.62978 155.12 8.86281 155.991 9.32885C156.879 9.77697 157.572 10.3416 158.07 11.0228V8.87177H161.135V23.9286C161.135 25.2909 160.851 26.5009 160.282 27.5584C159.714 28.6339 158.887 29.4764 157.803 30.0858C156.737 30.6953 155.458 31 153.965 31C151.975 31 150.322 30.525 149.007 29.575C147.692 28.6429 146.946 27.3702 146.768 25.757H149.78C150.011 26.5277 150.5 27.1462 151.246 27.6122C152.01 28.0962 152.916 28.3382 153.965 28.3382C155.191 28.3382 156.177 27.9617 156.924 27.2089C157.688 26.456 158.07 25.3626 158.07 23.9286V21.455C157.554 22.1541 156.853 22.7456 155.964 23.2296C155.093 23.6956 154.098 23.9286 152.979 23.9286C151.699 23.9286 150.526 23.606 149.46 22.9607C148.412 22.2975 147.576 21.3833 146.955 20.2182C146.35 19.0352 146.048 17.6998 146.048 16.212C146.048 14.7242 146.35 13.4068 146.955 12.2596C147.576 11.1124 148.412 10.2251 149.46 9.59772C150.526 8.95243 151.699 8.62978 152.979 8.62978ZM158.07 16.2658C158.07 15.2441 157.857 14.3568 157.43 13.6039C157.021 12.8511 156.479 12.2775 155.804 11.8831C155.129 11.4888 154.4 11.2916 153.618 11.2916C152.836 11.2916 152.108 11.4888 151.433 11.8831C150.757 12.2596 150.206 12.8242 149.78 13.577C149.371 14.312 149.167 15.1903 149.167 16.212C149.167 17.2337 149.371 18.13 149.78 18.9007C150.206 19.6715 150.757 20.263 151.433 20.6753C152.126 21.0696 152.854 21.2668 153.618 21.2668C154.4 21.2668 155.129 21.0696 155.804 20.6753C156.479 20.2809 157.021 19.7073 157.43 18.9545C157.857 18.1837 158.07 17.2875 158.07 16.2658Z" fill="#111111"/>
<path d="M178.321 15.9162C178.321 16.4719 178.285 16.9738 178.214 17.4219H166.992C167.081 18.605 167.516 19.555 168.298 20.272C169.08 20.989 170.04 21.3475 171.177 21.3475C172.812 21.3475 173.967 20.6574 174.642 19.2771H177.921C177.477 20.6394 176.668 21.7597 175.495 22.6381C174.34 23.4984 172.901 23.9286 171.177 23.9286C169.773 23.9286 168.512 23.615 167.392 22.9876C166.29 22.3423 165.42 21.4461 164.78 20.2989C164.158 19.1337 163.847 17.7894 163.847 16.2658C163.847 14.7422 164.149 13.4068 164.753 12.2596C165.375 11.0945 166.237 10.1982 167.339 9.57084C168.458 8.94347 169.738 8.62978 171.177 8.62978C172.563 8.62978 173.798 8.93451 174.882 9.54395C175.966 10.1534 176.81 11.0138 177.415 12.1251C178.019 13.2185 178.321 14.4822 178.321 15.9162ZM175.149 14.9483C175.131 13.819 174.731 12.9138 173.949 12.2327C173.167 11.5515 172.199 11.211 171.044 11.211C169.995 11.211 169.098 11.5515 168.352 12.2327C167.605 12.8959 167.161 13.8011 167.019 14.9483H175.149Z" fill="#111111"/>
<path d="M186.376 23.9286C185.221 23.9286 184.181 23.7225 183.257 23.3102C182.351 22.88 181.631 22.3064 181.098 21.5895C180.565 20.8545 180.281 20.039 180.245 19.1427H183.39C183.444 19.7701 183.737 20.2989 184.27 20.7291C184.821 21.1413 185.505 21.3475 186.322 21.3475C187.175 21.3475 187.833 21.1861 188.295 20.8635C188.775 20.5229 189.015 20.0927 189.015 19.5729C189.015 19.0172 188.748 18.605 188.215 18.3361C187.7 18.0672 186.873 17.7715 185.736 17.4488C184.634 17.1441 183.737 16.8483 183.044 16.5615C182.351 16.2747 181.747 15.8356 181.231 15.2441C180.734 14.6525 180.485 13.8728 180.485 12.9049C180.485 12.1162 180.716 11.3992 181.178 10.7539C181.64 10.0907 182.297 9.57084 183.15 9.19442C184.021 8.81799 185.016 8.62978 186.136 8.62978C187.806 8.62978 189.148 9.05998 190.161 9.92037C191.191 10.7628 191.742 11.919 191.813 13.3888H188.775C188.721 12.7256 188.455 12.1968 187.975 11.8025C187.495 11.4081 186.847 11.211 186.029 11.211C185.23 11.211 184.616 11.3633 184.19 11.668C183.763 11.9728 183.55 12.3761 183.55 12.878C183.55 13.2723 183.692 13.6039 183.977 13.8728C184.261 14.1417 184.608 14.3568 185.016 14.5181C185.425 14.6615 186.029 14.8497 186.829 15.0827C187.895 15.3695 188.766 15.6653 189.441 15.97C190.134 16.2568 190.729 16.687 191.227 17.2606C191.725 17.8342 191.982 18.596 192 19.546C192 20.3885 191.769 21.1413 191.307 21.8045C190.845 22.4678 190.187 22.9876 189.334 23.364C188.499 23.7404 187.513 23.9286 186.376 23.9286Z" fill="#111111"/>
</svg>
